ply
format ascii 1.0
comment Created by Open Asset Import Library - http://assimp.sf.net (v4.1.0)
element vertex 108
property float x
property float y
property float z
property float nx
property float ny
property float nz
element face 36
property list uchar int vertex_index
end_header
14.72492027282715 19.40847015380859 -32.20524215698242 4.74868109279214e-08 0.8944272398948669 -0.4472136199474335
9.174137115478516 11.76846981048584 -47.4852409362793 4.74868109279214e-08 0.8944272398948669 -0.4472136199474335
0.1927784979343414 24.1302490234375 -22.76167869567871 4.74868109279214e-08 0.8944272398948669 -0.4472136199474335
0.1927784979343414 24.1302490234375 -22.76167869567871 0 0.8944272398948669 -0.4472136199474335
9.174137115478516 11.76846981048584 -47.4852409362793 0 0.8944272398948669 -0.4472136199474335
-8.788579940795898 11.76846981048584 -47.4852409362793 0 0.8944272398948669 -0.4472136199474335
0.1927784979343414 24.1302490234375 -22.76167869567871 -4.74868109279214e-08 0.8944272398948669 -0.4472136199474335
-8.788579940795898 11.76846981048584 -47.4852409362793 -4.74868109279214e-08 0.8944272398948669 -0.4472136199474335
-14.33937072753906 19.40847015380859 -32.20524215698242 -4.74868109279214e-08 0.8944272398948669 -0.4472136199474335
-23.32072067260742 7.046689033508301 -22.76167869567871 -0.8506507873535156 -0.2763932049274445 0.4472136199474335
-23.32072067260742 -8.233310699462891 -32.20524215698242 -0.8506507873535156 -0.2763932049274445 0.4472136199474335
-14.33937072753906 4.128468990325928 -7.481682777404785 -0.8506507873535156 -0.2763932049274445 0.4472136199474335
-14.33937072753906 4.128468990325928 -7.481682777404785 -0.8506507873535156 -0.2763932049274445 0.4472136199474335
-23.32072067260742 -8.233310699462891 -32.20524215698242 -0.8506507873535156 -0.2763932049274445 0.4472136199474335
-14.33937072753906 -20.59509086608887 -22.76167869567871 -0.8506507873535156 -0.2763932049274445 0.4472136199474335
-14.33937072753906 4.128468990325928 -7.481682777404785 -0.8506507873535156 -0.2763932049274445 0.4472136199474335
-14.33937072753906 -20.59509086608887 -22.76167869567871 -0.8506507873535156 -0.2763932049274445 0.4472136199474335
-8.788579940795898 -12.9550895690918 -7.481682777404785 -0.8506507873535156 -0.2763932049274445 0.4472136199474335
-8.788579940795898 -12.9550895690918 -7.481682777404785 0 -0.8944272398948669 0.4472136199474335
-14.33937072753906 -20.59509086608887 -22.76167869567871 0 -0.8944272398948669 0.4472136199474335
9.174137115478516 -12.9550895690918 -7.481682777404785 0 -0.8944272398948669 0.4472136199474335
9.174137115478516 -12.9550895690918 -7.481682777404785 5.309187756097344e-08 -0.8944272398948669 0.4472136199474335
-14.33937072753906 -20.59509086608887 -22.76167869567871 5.309187756097344e-08 -0.8944272398948669 0.4472136199474335
0.1927784979343414 -25.31686973571777 -32.20524215698242 5.309187756097344e-08 -0.8944272398948669 0.4472136199474335
9.174137115478516 -12.9550895690918 -7.481682777404785 -4.748682158606243e-08 -0.8944272398948669 0.4472136199474335
0.1927784979343414 -25.31686973571777 -32.20524215698242 -4.748682158606243e-08 -0.8944272398948669 0.4472136199474335
14.72492027282715 -20.59509086608887 -22.76167869567871 -4.748682158606243e-08 -0.8944272398948669 0.4472136199474335
0.1927784979343414 -15.87331008911133 -47.4852409362793 -0.525731086730957 -0.7236067652702332 -0.4472136199474335
0.1927784979343414 -25.31686973571777 -32.20524215698242 -0.525731086730957 -0.7236067652702332 -0.4472136199474335
-14.33937072753906 -5.315091133117676 -47.4852409362793 -0.525731086730957 -0.7236067652702332 -0.4472136199474335
-14.33937072753906 -5.315091133117676 -47.4852409362793 -0.525731086730957 -0.7236067652702332 -0.4472136199474335
0.1927784979343414 -25.31686973571777 -32.20524215698242 -0.525731086730957 -0.7236067652702332 -0.4472136199474335
-14.33937072753906 -20.59509086608887 -22.76167869567871 -0.525731086730957 -0.7236067652702332 -0.4472136199474335
-14.33937072753906 -5.315091133117676 -47.4852409362793 -0.5257310271263123 -0.7236067652702332 -0.4472136199474335
-14.33937072753906 -20.59509086608887 -22.76167869567871 -0.5257310271263123 -0.7236067652702332 -0.4472136199474335
-23.32072067260742 -8.233310699462891 -32.20524215698242 -0.5257310271263123 -0.7236067652702332 -0.4472136199474335
-14.33937072753906 19.40847015380859 -32.20524215698242 -0.8506507873535156 0.2763932049274445 -0.4472136199474335
-8.788579940795898 11.76846981048584 -47.4852409362793 -0.8506507873535156 0.2763932049274445 -0.4472136199474335
-23.32072067260742 7.046689033508301 -22.76167869567871 -0.8506507873535156 0.2763932049274445 -0.4472136199474335
-23.32072067260742 7.046689033508301 -22.76167869567871 -0.8506507873535156 0.2763932049274445 -0.4472136199474335
-8.788579940795898 11.76846981048584 -47.4852409362793 -0.8506507873535156 0.2763932049274445 -0.4472136199474335
-14.33937072753906 -5.315091133117676 -47.4852409362793 -0.8506507873535156 0.2763932049274445 -0.4472136199474335
-23.32072067260742 7.046689033508301 -22.76167869567871 -0.8506507277488708 0.2763932049274445 -0.4472136199474335
-14.33937072753906 -5.315091133117676 -47.4852409362793 -0.8506507277488708 0.2763932049274445 -0.4472136199474335
-23.32072067260742 -8.233310699462891 -32.20524215698242 -0.8506507277488708 0.2763932049274445 -0.4472136199474335
0.1927784979343414 24.1302490234375 -22.76167869567871 -0.525731086730957 0.7236067056655884 0.4472136199474335
-14.33937072753906 19.40847015380859 -32.20524215698242 -0.525731086730957 0.7236067056655884 0.4472136199474335
0.1927784979343414 14.68668937683105 -7.481682777404785 -0.525731086730957 0.7236067056655884 0.4472136199474335
0.1927784979343414 14.68668937683105 -7.481682777404785 -0.525731086730957 0.7236069440841675 0.4472136199474335
-14.33937072753906 19.40847015380859 -32.20524215698242 -0.525731086730957 0.7236069440841675 0.4472136199474335
-23.32072067260742 7.046689033508301 -22.76167869567871 -0.525731086730957 0.7236069440841675 0.4472136199474335
0.1927784979343414 14.68668937683105 -7.481682777404785 -0.525731086730957 0.7236067652702332 0.4472136199474335
-23.32072067260742 7.046689033508301 -22.76167869567871 -0.525731086730957 0.7236067652702332 0.4472136199474335
-14.33937072753906 4.128468990325928 -7.481682777404785 -0.525731086730957 0.7236067652702332 0.4472136199474335
0.1927784979343414 14.68668937683105 -7.481682777404785 0 0 1
-14.33937072753906 4.128468990325928 -7.481682777404785 0 0 1
14.72492027282715 4.128468990325928 -7.481682777404785 0 0 1
14.72492027282715 4.128468990325928 -7.481682777404785 0 0 1
-14.33937072753906 4.128468990325928 -7.481682777404785 0 0 1
-8.788579940795898 -12.9550895690918 -7.481682777404785 0 0 1
14.72492027282715 4.128468990325928 -7.481682777404785 0 0 1
-8.788579940795898 -12.9550895690918 -7.481682777404785 0 0 1
9.174137115478516 -12.9550895690918 -7.481682777404785 0 0 1
23.70627975463867 7.046689033508301 -22.76167869567871 0.8506507277488708 -0.2763932049274445 0.4472136199474335
14.72492027282715 4.128468990325928 -7.481682777404785 0.8506507277488708 -0.2763932049274445 0.4472136199474335
23.70627975463867 -8.233310699462891 -32.20524215698242 0.8506507277488708 -0.2763932049274445 0.4472136199474335
23.70627975463867 -8.233310699462891 -32.20524215698242 0.8506507873535156 -0.2763932049274445 0.4472136199474335
14.72492027282715 4.128468990325928 -7.481682777404785 0.8506507873535156 -0.2763932049274445 0.4472136199474335
9.174137115478516 -12.9550895690918 -7.481682777404785 0.8506507873535156 -0.2763932049274445 0.4472136199474335
23.70627975463867 -8.233310699462891 -32.20524215698242 0.8506507873535156 -0.2763932049274445 0.4472136199474335
9.174137115478516 -12.9550895690918 -7.481682777404785 0.8506507873535156 -0.2763932049274445 0.4472136199474335
14.72492027282715 -20.59509086608887 -22.76167869567871 0.8506507873535156 -0.2763932049274445 0.4472136199474335
23.70627975463867 -8.233310699462891 -32.20524215698242 0.5257310271263123 -0.7236067652702332 -0.4472136199474335
14.72492027282715 -20.59509086608887 -22.76167869567871 0.5257310271263123 -0.7236067652702332 -0.4472136199474335
14.72492027282715 -5.315091133117676 -47.4852409362793 0.5257310271263123 -0.7236067652702332 -0.4472136199474335
14.72492027282715 -5.315091133117676 -47.4852409362793 0.525731086730957 -0.7236067652702332 -0.4472136199474335
14.72492027282715 -20.59509086608887 -22.76167869567871 0.525731086730957 -0.7236067652702332 -0.4472136199474335
0.1927784979343414 -25.31686973571777 -32.20524215698242 0.525731086730957 -0.7236067652702332 -0.4472136199474335
14.72492027282715 -5.315091133117676 -47.4852409362793 0.525731086730957 -0.7236067652702332 -0.4472136199474335
0.1927784979343414 -25.31686973571777 -32.20524215698242 0.525731086730957 -0.7236067652702332 -0.4472136199474335
0.1927784979343414 -15.87331008911133 -47.4852409362793 0.525731086730957 -0.7236067652702332 -0.4472136199474335
9.174137115478516 11.76846981048584 -47.4852409362793 0 0 -1
14.72492027282715 -5.315091133117676 -47.4852409362793 0 0 -1
-8.788579940795898 11.76846981048584 -47.4852409362793 0 0 -1
-8.788579940795898 11.76846981048584 -47.4852409362793 0 0 -1
14.72492027282715 -5.315091133117676 -47.4852409362793 0 0 -1
0.1927784979343414 -15.87331008911133 -47.4852409362793 0 0 -1
-8.788579940795898 11.76846981048584 -47.4852409362793 0 0 -1
0.1927784979343414 -15.87331008911133 -47.4852409362793 0 0 -1
-14.33937072753906 -5.315091133117676 -47.4852409362793 0 0 -1
0.1927784979343414 24.1302490234375 -22.76167869567871 0.5257312655448914 0.7236067652702332 0.4472136199474335
0.1927784979343414 14.68668937683105 -7.481682777404785 0.5257312655448914 0.7236067652702332 0.4472136199474335
14.72492027282715 19.40847015380859 -32.20524215698242 0.5257312655448914 0.7236067652702332 0.4472136199474335
14.72492027282715 19.40847015380859 -32.20524215698242 0.525731086730957 0.7236067652702332 0.4472136199474335
0.1927784979343414 14.68668937683105 -7.481682777404785 0.525731086730957 0.7236067652702332 0.4472136199474335
14.72492027282715 4.128468990325928 -7.481682777404785 0.525731086730957 0.7236067652702332 0.4472136199474335
14.72492027282715 19.40847015380859 -32.20524215698242 0.5257310271263123 0.7236069440841675 0.4472136199474335
14.72492027282715 4.128468990325928 -7.481682777404785 0.5257310271263123 0.7236069440841675 0.4472136199474335
23.70627975463867 7.046689033508301 -22.76167869567871 0.5257310271263123 0.7236069440841675 0.4472136199474335
14.72492027282715 19.40847015380859 -32.20524215698242 0.8506507873535156 0.2763932049274445 -0.4472136199474335
23.70627975463867 7.046689033508301 -22.76167869567871 0.8506507873535156 0.2763932049274445 -0.4472136199474335
9.174137115478516 11.76846981048584 -47.4852409362793 0.8506507873535156 0.2763932049274445 -0.4472136199474335
9.174137115478516 11.76846981048584 -47.4852409362793 0.8506507873535156 0.2763932049274445 -0.4472136199474335
23.70627975463867 7.046689033508301 -22.76167869567871 0.8506507873535156 0.2763932049274445 -0.4472136199474335
23.70627975463867 -8.233310699462891 -32.20524215698242 0.8506507873535156 0.2763932049274445 -0.4472136199474335
9.174137115478516 11.76846981048584 -47.4852409362793 0.8506507277488708 0.2763932049274445 -0.4472136199474335
23.70627975463867 -8.233310699462891 -32.20524215698242 0.8506507277488708 0.2763932049274445 -0.4472136199474335
14.72492027282715 -5.315091133117676 -47.4852409362793 0.8506507277488708 0.2763932049274445 -0.4472136199474335
3 0 1 2
3 3 4 5
3 6 7 8
3 9 10 11
3 12 13 14
3 15 16 17
3 18 19 20
3 21 22 23
3 24 25 26
3 27 28 29
3 30 31 32
3 33 34 35
3 36 37 38
3 39 40 41
3 42 43 44
3 45 46 47
3 48 49 50
3 51 52 53
3 54 55 56
3 57 58 59
3 60 61 62
3 63 64 65
3 66 67 68
3 69 70 71
3 72 73 74
3 75 76 77
3 78 79 80
3 81 82 83
3 84 85 86
3 87 88 89
3 90 91 92
3 93 94 95
3 96 97 98
3 99 100 101
3 102 103 104
3 105 106 107
