ply
format ascii 1.0
comment Created by Open Asset Import Library - http://assimp.sf.net (v4.1.0)
element vertex 60
property float x
property float y
property float z
property float nx
property float ny
property float nz
element face 20
property list uchar int vertex_index
end_header
13.24001121520996 -7.644115924835205 -9.679536105977604e-07 6.919573536379175e-08 -0.6666664481163025 -0.7453562021255493
2.146586894014035e-06 -24.73689079284668 15.28822994232178 6.919573536379175e-08 -0.6666664481163025 -0.7453562021255493
-13.23999977111816 -7.644120216369629 8.881784197001252e-16 6.919573536379175e-08 -0.6666664481163025 -0.7453562021255493
-13.23999977111816 -7.644120216369629 8.881784197001252e-16 -3.655413038927691e-08 -1.704093044452293e-08 -1
1.464087944214043e-07 15.28822994232178 -8.747651918383781e-07 -3.655413038927691e-08 -1.704093044452293e-08 -1
13.24001121520996 -7.644115924835205 -9.679536105977604e-07 -3.655413038927691e-08 -1.704093044452293e-08 -1
21.42276954650879 12.36844062805176 15.28822994232178 0.5773500800132751 0.3333334028720856 -0.7453560829162598
13.24001121520996 -7.644115924835205 -9.679536105977604e-07 0.5773500800132751 0.3333334028720856 -0.7453560829162598
1.464087944214043e-07 15.28822994232178 -8.747651918383781e-07 0.5773500800132751 0.3333334028720856 -0.7453560829162598
-21.42276954650879 12.36844062805176 15.28823947906494 -0.5773503184318542 0.3333333134651184 -0.745356023311615
1.464087944214043e-07 15.28822994232178 -8.747651918383781e-07 -0.5773503184318542 0.3333333134651184 -0.745356023311615
-13.23999977111816 -7.644120216369629 8.881784197001252e-16 -0.5773503184318542 0.3333333134651184 -0.745356023311615
2.146586894014035e-06 -24.73689079284668 15.28822994232178 -0.5773504376411438 -0.7453557848930359 -0.3333332240581512
-21.42276954650879 -12.36844062805176 24.73688125610352 -0.5773504376411438 -0.7453557848930359 -0.3333332240581512
-13.23999977111816 -7.644120216369629 8.881784197001252e-16 -0.5773504376411438 -0.7453557848930359 -0.3333332240581512
-21.42276954650879 -12.36844062805176 24.73688125610352 -0.9341723322868347 -0.1273218989372253 -0.3333333134651184
-21.42276954650879 12.36844062805176 15.28823947906494 -0.9341723322868347 -0.1273218989372253 -0.3333333134651184
-13.23999977111816 -7.644120216369629 8.881784197001252e-16 -0.9341723322868347 -0.1273218989372253 -0.3333333134651184
21.42276954650879 12.36844062805176 15.28822994232178 0.9341723322868347 -0.1273218989372253 -0.3333334028720856
21.42277908325195 -12.36844062805176 24.73688125610352 0.9341723322868347 -0.1273218989372253 -0.3333334028720856
13.24001121520996 -7.644115924835205 -9.679536105977604e-07 0.9341723322868347 -0.1273218989372253 -0.3333334028720856
13.24001121520996 -7.644115924835205 -9.679536105977604e-07 0.5773504376411438 -0.7453559041023254 -0.3333334028720856
21.42277908325195 -12.36844062805176 24.73688125610352 0.5773504376411438 -0.7453559041023254 -0.3333334028720856
2.146586894014035e-06 -24.73689079284668 15.28822994232178 0.5773504376411438 -0.7453559041023254 -0.3333334028720856
21.42276954650879 12.36844062805176 15.28822994232178 0.3568220138549805 0.8726779818534851 -0.3333334922790527
1.464087944214043e-07 15.28822994232178 -8.747651918383781e-07 0.3568220138549805 0.8726779818534851 -0.3333334922790527
2.270817958560656e-06 24.73689079284668 24.73688125610352 0.3568220138549805 0.8726779818534851 -0.3333334922790527
1.464087944214043e-07 15.28822994232178 -8.747651918383781e-07 -0.3568221032619476 0.8726779818534851 -0.3333334028720856
-21.42276954650879 12.36844062805176 15.28823947906494 -0.3568221032619476 0.8726779818534851 -0.3333334028720856
2.270817958560656e-06 24.73689079284668 24.73688125610352 -0.3568221032619476 0.8726779818534851 -0.3333334028720856
3.401424010007759e-06 -15.28823947906494 40.02510833740234 -0.3568222224712372 -0.8726779222488403 0.3333334922790527
-21.42276954650879 -12.36844062805176 24.73688125610352 -0.3568222224712372 -0.8726779222488403 0.3333334922790527
2.146586894014035e-06 -24.73689079284668 15.28822994232178 -0.3568222224712372 -0.8726779222488403 0.3333334922790527
-21.42276954650879 -12.36844062805176 24.73688125610352 -0.9341723322868347 0.1273221075534821 0.3333334028720856
-13.23999977111816 7.644117832183838 40.02511978149414 -0.9341723322868347 0.1273221075534821 0.3333334028720856
-21.42276954650879 12.36844062805176 15.28823947906494 -0.9341723322868347 0.1273221075534821 0.3333334028720856
13.23999977111816 7.644117832183838 40.02511978149414 0.9341724514961243 0.1273223012685776 0.3333333134651184
21.42277908325195 -12.36844062805176 24.73688125610352 0.9341724514961243 0.1273223012685776 0.3333333134651184
21.42276954650879 12.36844062805176 15.28822994232178 0.9341724514961243 0.1273223012685776 0.3333333134651184
21.42277908325195 -12.36844062805176 24.73688125610352 0.3568221032619476 -0.8726779818534851 0.3333334922790527
3.401424010007759e-06 -15.28823947906494 40.02510833740234 0.3568221032619476 -0.8726779818534851 0.3333334922790527
2.146586894014035e-06 -24.73689079284668 15.28822994232178 0.3568221032619476 -0.8726779818534851 0.3333334922790527
2.270817958560656e-06 24.73689079284668 24.73688125610352 0.5773503184318542 0.7453559041023254 0.3333333134651184
13.23999977111816 7.644117832183838 40.02511978149414 0.5773503184318542 0.7453559041023254 0.3333333134651184
21.42276954650879 12.36844062805176 15.28822994232178 0.5773503184318542 0.7453559041023254 0.3333333134651184
-21.42276954650879 12.36844062805176 15.28823947906494 -0.5773504376411438 0.745356023311615 0.3333334028720856
-13.23999977111816 7.644117832183838 40.02511978149414 -0.5773504376411438 0.745356023311615 0.3333334028720856
2.270817958560656e-06 24.73689079284668 24.73688125610352 -0.5773504376411438 0.745356023311615 0.3333334028720856
3.401424010007759e-06 -15.28823947906494 40.02510833740234 -0.5773500800132751 -0.3333334028720856 0.7453560829162598
-13.23999977111816 7.644117832183838 40.02511978149414 -0.5773500800132751 -0.3333334028720856 0.7453560829162598
-21.42276954650879 -12.36844062805176 24.73688125610352 -0.5773500800132751 -0.3333334028720856 0.7453560829162598
13.23999977111816 7.644117832183838 40.02511978149414 0.5773500800132751 -0.3333333134651184 0.7453560829162598
3.401424010007759e-06 -15.28823947906494 40.02510833740234 0.5773500800132751 -0.3333333134651184 0.7453560829162598
21.42277908325195 -12.36844062805176 24.73688125610352 0.5773500800132751 -0.3333333134651184 0.7453560829162598
2.270817958560656e-06 24.73689079284668 24.73688125610352 -0 0.6666666269302368 0.7453560829162598
-13.23999977111816 7.644117832183838 40.02511978149414 -0 0.6666666269302368 0.7453560829162598
13.23999977111816 7.644117832183838 40.02511978149414 -0 0.6666666269302368 0.7453560829162598
3.401424010007759e-06 -15.28823947906494 40.02510833740234 0 -1.663456004052932e-07 1
13.23999977111816 7.644117832183838 40.02511978149414 0 -1.663456004052932e-07 1
-13.23999977111816 7.644117832183838 40.02511978149414 0 -1.663456004052932e-07 1
3 0 1 2
3 3 4 5
3 6 7 8
3 9 10 11
3 12 13 14
3 15 16 17
3 18 19 20
3 21 22 23
3 24 25 26
3 27 28 29
3 30 31 32
3 33 34 35
3 36 37 38
3 39 40 41
3 42 43 44
3 45 46 47
3 48 49 50
3 51 52 53
3 54 55 56
3 57 58 59
