ply
format ascii 1.0
comment Created by Open Asset Import Library - http://assimp.sf.net (v4.1.0)
element vertex 24
property float x
property float y
property float z
property float nx
property float ny
property float nz
element face 8
property list uchar int vertex_index
end_header
24.47999954223633 -24.47999954223633 -1.065814018936856e-14 0.8164965510368347 0 -0.5773503184318542
-3.297640082888472e-15 3.307363809364715e-14 -34.61994934082031 0.8164965510368347 0 -0.5773503184318542
24.47999954223633 24.47999954223633 -1.232090948702553e-15 0.8164965510368347 0 -0.5773503184318542
24.47999954223633 -24.47999954223633 -1.065814018936856e-14 -1.675784011831097e-16 -0.8164965510368347 -0.5773503184318542
-24.47999954223633 -24.47999954223633 3.552713678800501e-15 -1.675784011831097e-16 -0.8164965510368347 -0.5773503184318542
-3.297640082888472e-15 3.307363809364715e-14 -34.61994934082031 -1.675784011831097e-16 -0.8164965510368347 -0.5773503184318542
-3.297640082888472e-15 3.307363809364715e-14 -34.61994934082031 2.73654507689693e-17 0.8164965510368347 -0.5773503184318542
-24.47999954223633 24.47999954223633 -3.552713678800501e-15 2.73654507689693e-17 0.8164965510368347 -0.5773503184318542
24.47999954223633 24.47999954223633 -1.232090948702553e-15 2.73654507689693e-17 0.8164965510368347 -0.5773503184318542
-24.47999954223633 -24.47999954223633 3.552713678800501e-15 -0.8164965510368347 -8.378921382644464e-17 -0.5773503184318542
-24.47999954223633 24.47999954223633 -3.552713678800501e-15 -0.8164965510368347 -8.378921382644464e-17 -0.5773503184318542
-3.297640082888472e-15 3.307363809364715e-14 -34.61994934082031 -0.8164965510368347 -8.378921382644464e-17 -0.5773503184318542
24.47999954223633 24.47999954223633 -1.232090948702553e-15 0.8164965510368347 0 0.5773503184318542
-3.297640082888472e-15 3.307363809364715e-14 34.61994934082031 0.8164965510368347 0 0.5773503184318542
24.47999954223633 -24.47999954223633 -1.065814018936856e-14 0.8164965510368347 0 0.5773503184318542
-3.297640082888472e-15 3.307363809364715e-14 34.61994934082031 1.675784011831097e-16 -0.8164965510368347 0.5773503184318542
-24.47999954223633 -24.47999954223633 3.552713678800501e-15 1.675784011831097e-16 -0.8164965510368347 0.5773503184318542
24.47999954223633 -24.47999954223633 -1.065814018936856e-14 1.675784011831097e-16 -0.8164965510368347 0.5773503184318542
24.47999954223633 24.47999954223633 -1.232090948702553e-15 -2.73654507689693e-17 0.8164965510368347 0.5773503184318542
-24.47999954223633 24.47999954223633 -3.552713678800501e-15 -2.73654507689693e-17 0.8164965510368347 0.5773503184318542
-3.297640082888472e-15 3.307363809364715e-14 34.61994934082031 -2.73654507689693e-17 0.8164965510368347 0.5773503184318542
-3.297640082888472e-15 3.307363809364715e-14 34.61994934082031 -0.8164965510368347 8.378921382644464e-17 0.5773503184318542
-24.47999954223633 24.47999954223633 -3.552713678800501e-15 -0.8164965510368347 8.378921382644464e-17 0.5773503184318542
-24.47999954223633 -24.47999954223633 3.552713678800501e-15 -0.8164965510368347 8.378921382644464e-17 0.5773503184318542
3 0 1 2
3 3 4 5
3 6 7 8
3 9 10 11
3 12 13 14
3 15 16 17
3 18 19 20
3 21 22 23
