ply
format ascii 1.0
comment Created by Open Asset Import Library - http://assimp.sf.net (v4.1.0)
element vertex 12
property float x
property float y
property float z
property float nx
property float ny
property float nz
element face 4
property list uchar int vertex_index
end_header
-7.099748146989106e-30 -3.197441972107272e-14 40.05052947998047 -0.8164965510368347 0.4714045226573944 0.3333333134651184
1.24345004169006e-14 28.31999969482422 0 -0.8164965510368347 0.4714045226573944 0.3333333134651184
-24.52584075927734 -14.15999984741211 0 -0.8164965510368347 0.4714045226573944 0.3333333134651184
24.52584075927734 -14.15999984741211 0 0.8164965510368347 0.4714045226573944 0.3333333134651184
1.24345004169006e-14 28.31999969482422 0 0.8164965510368347 0.4714045226573944 0.3333333134651184
-7.099748146989106e-30 -3.197441972107272e-14 40.05052947998047 0.8164965510368347 0.4714045226573944 0.3333333134651184
-24.52584075927734 -14.15999984741211 0 0 -0 -1
1.24345004169006e-14 28.31999969482422 0 0 -0 -1
24.52584075927734 -14.15999984741211 0 0 -0 -1
-24.52584075927734 -14.15999984741211 0 0 -0.9428090453147888 0.3333333134651184
24.52584075927734 -14.15999984741211 0 0 -0.9428090453147888 0.3333333134651184
-7.099748146989106e-30 -3.197441972107272e-14 40.05052947998047 0 -0.9428090453147888 0.3333333134651184
3 0 1 2
3 3 4 5
3 6 7 8
3 9 10 11
